<svg xmlns="http://www.w3.org/2000/svg" viewBox="0 0 1440 320" width="1880" height="840">
  <path fill="#0099ff" fill-opacity="1" d="M0,160L20,149.3C40,139,80,117,120,101.3C160,85,200,75,240,80C280,85,320,107,360,138.7C400,171,440,213,480,229.3C520,245,560,235,600,213.3C640,192,680,160,720,144C760,128,800,128,840,160C880,192,920,256,960,266.7C1000,277,1040,235,1080,213.3C1120,192,1160,192,1200,208C1240,224,1280,256,1320,261.3C1360,267,1400,245,1420,234.7L1440,224L1440,320L1420,320C1400,320,1360,320,1320,320C1280,320,1240,320,1200,320C1160,320,1120,320,1080,320C1040,320,1000,320,960,320C920,320,880,320,840,320C800,320,760,320,720,320C680,320,640,320,600,320C560,320,520,320,480,320C440,320,400,320,360,320C320,320,280,320,240,320C200,320,160,320,120,320C80,320,40,320,20,320L0,320Z"></path>
</svg>
